<svg width="1000" height="1000" viewBox="0 0 1000 1000" fill="none" xmlns="http://www.w3.org/2000/svg">
<path d="M500 10C229.4 10 10 229.4 10 500C10 770.6 229.4 990 500 990C770.6 990 990 770.6 990 500C990 229.4 770.6 10 500 10ZM500 885.1C287.3 885.1 114.9 712.7 114.9 500C114.9 287.3 287.3 114.9 500 114.9C712.7 114.9 885.1 287.3 885.1 500C885.1 712.7 712.7 885.1 500 885.1ZM576.5 308.7V691.1C576.5 733.3 542.3 767.6 500 767.6C457.7 767.6 423.5 733.4 423.5 691.1V308.7C423.5 266.5 457.7 232.2 500 232.2C542.2 232.3 576.5 266.5 576.5 308.7Z" fill="white"/>
</svg>
