<svg width="1000" height="1000" viewBox="0 0 1000 1000" fill="none" xmlns="http://www.w3.org/2000/svg">
<path d="M321.8 455.5H678.2V321.8C678.2 272.6 660.8 230.6 626 195.8C591.2 161 549.2 143.6 500 143.6C450.8 143.6 408.8 161 374 195.8C339.2 230.6 321.8 272.6 321.8 321.8V455.5ZM900.9 522.3V923.2C900.9 941.8 894.4 957.5 881.4 970.5C868.4 983.5 852.6 990 834.1 990H165.9C147.3 990 131.6 983.5 118.6 970.5C105.6 957.5 99.1 941.7 99.1 923.2V522.3C99.1 503.7 105.6 488 118.6 475C131.6 462 147.4 455.5 165.9 455.5H188.2V321.8C188.2 236.4 218.8 163.1 280.1 101.9C341.3 40.6 414.6 10 500 10C585.4 10 658.7 40.6 719.9 101.9C781.2 163.2 811.8 236.5 811.8 321.8V455.4H834.1C852.7 455.4 868.4 461.9 881.4 474.9C894.4 487.9 900.9 503.7 900.9 522.3Z" fill="white"/>
</svg>
