<svg width="1000" height="1000" viewBox="0 0 1000 1000" fill="none" xmlns="http://www.w3.org/2000/svg">
<path d="M622.5 990H50.8C26.3 990 10 973.7 10 949.2V50.8C10 26.3 26.3 10 50.8 10H622.5C647 10 663.3 26.3 663.3 50.8V336.6C663.3 361.1 647 377.4 622.5 377.4C598 377.4 581.7 361.1 581.7 336.6V91.6H91.7V908.3H581.7V663.3C581.7 638.8 598 622.5 622.5 622.5C647 622.5 663.3 638.8 663.3 663.3V949.1C663.3 973.7 647 990 622.5 990Z" fill="white"/>
<path d="M949.2 540.8H336.7C312.2 540.8 295.9 524.5 295.9 500C295.9 475.5 312.2 459.2 336.7 459.2H949.2C973.7 459.2 990 475.5 990 500C990 524.5 973.7 540.8 949.2 540.8Z" fill="white"/>
<path d="M949.2 540.8C936.9 540.8 928.8 536.7 920.6 528.5L757.3 365.3C741 349 741 324.5 757.3 308.1C773.6 291.8 798.1 291.8 814.5 308.1L977.8 471.4C994.1 487.7 994.1 512.2 977.8 528.6C969.6 536.8 961.4 540.8 949.2 540.8Z" fill="white"/>
<path d="M785.8 704.2C773.5 704.2 765.4 700.1 757.2 691.9C740.9 675.6 740.9 651.1 757.2 634.7L920.5 471.4C936.8 455.1 961.3 455.1 977.7 471.4C994 487.7 994 512.2 977.7 528.6L814.4 691.9C806.3 700.1 798.1 704.2 785.8 704.2Z" fill="white"/>
</svg>
