<svg width="1000" height="1000" viewBox="0 0 1000 1000" fill="none" xmlns="http://www.w3.org/2000/svg">
<path d="M134.6 285.6C64.9 420.7 60.1 590 137.1 723.4L42 668.5L10 723.9C103.1 776 143.6 799.8 194 830.1C222.5 778.6 246.8 735.7 301.4 644L246 612L192.6 704.5C65.4 502.7 167.2 200.3 398.8 126.2C638 29.3 929 223.5 931.5 481.5C951.1 718.2 722.6 925.1 492.2 897.7L462.7 948.7C740.4 1003.1 1019.2 747 987.4 465.6C976.1 170.8 637.1 -41.2 367.1 77.5C262.8 114.2 183.1 191.5 134.6 285.6Z" fill="white"/>
</svg>
