<svg width="1000" height="1000" viewBox="0 0 1000 1000" fill="none" xmlns="http://www.w3.org/2000/svg">
<path d="M764 152.1C794.9 174.1 822.3 198.9 846.4 226.7C870.4 254.5 891 284.5 908.2 316.8C925.4 349.1 938.4 383.2 947.3 419.2C956.2 455.2 960.7 491.8 960.7 528.8C960.7 592.6 948.5 652.5 924.2 708.4C899.8 764.3 866.9 813.1 825.4 854.6C783.9 896.1 735.2 929.1 679.2 953.4C623.2 977.8 563.3 990 499.5 990C436.4 990 376.8 977.8 320.9 953.5C265 929.1 216.1 896.2 174.2 854.7C132.3 813.2 99.4 764.5 75.4 708.5C51.4 652.6 39.4 592.7 39.4 528.9C39.4 492.5 43.7 456.8 52.3 421.8C60.9 386.8 73.1 353.5 88.8 321.9C104.6 290.3 124.1 260.8 147.5 233.4C170.8 205.9 196.9 181.2 225.7 159.3C240.8 148.3 257.1 144.2 274.6 146.9C292.1 149.6 306.3 158.2 317.3 172.6C328.3 187 332.4 203.1 329.7 221C327 238.8 318.4 253.3 304 264.2C260.8 295.8 227.6 334.5 204.7 380.5C181.7 426.5 170.2 475.9 170.2 528.7C170.2 574 178.8 616.7 195.9 656.9C213.1 697 236.6 732 266.4 761.9C296.3 791.8 331.3 815.4 371.4 832.9C411.5 850.4 454.3 859.2 499.6 859.2C544.9 859.2 587.6 850.5 627.8 832.9C667.9 815.4 702.9 791.7 732.8 761.9C762.7 732.1 786.3 697 803.8 656.9C821.3 616.8 830.1 574 830.1 528.7C830.1 475.2 817.7 424.6 793 376.9C768.3 329.2 733.6 289.9 689 259C673.9 248.7 664.8 234.6 661.7 216.8C658.6 199 662.2 182.5 672.5 167.4C682.8 153 696.9 144.2 714.7 141.2C732.5 138.2 748.9 141.8 764 152.1ZM499.5 531.9C481.7 531.9 466.4 525.6 453.7 512.9C441 500.2 434.7 484.9 434.7 467.1V75.9C434.7 58.1 441 42.6 453.7 29.6C466.4 16.6 481.7 10 499.5 10C518 10 533.6 16.5 546.3 29.6C559 42.6 565.3 58.1 565.3 75.9V467.1C565.3 484.9 559 500.2 546.3 512.9C533.6 525.6 518 531.9 499.5 531.9Z" fill="white"/>
</svg>
