<svg width="1000" height="1000" viewBox="0 0 1000 1000" fill="none" xmlns="http://www.w3.org/2000/svg">
<path d="M500 990C433.9 990 369.7 977 309.3 951.5C250.9 926.8 198.5 891.5 153.6 846.5C108.7 801.5 73.3 749.1 48.6 690.8C23 630.3 10 566.1 10 500C10 433.9 23 369.7 48.5 309.3C73.2 250.9 108.5 198.5 153.5 153.6C198.5 108.6 250.9 73.3 309.2 48.6C369.7 23 433.9 10 500 10C566.1 10 630.3 23 690.7 48.5C749.1 73.2 801.5 108.5 846.4 153.5C891.4 198.5 926.7 250.9 951.4 309.2C977 369.7 990 433.9 990 500C990 566.1 977 630.3 951.5 690.7C926.8 749.1 891.5 801.5 846.5 846.4C801.5 891.3 749.1 926.7 690.8 951.4C630.3 977 566.1 990 500 990ZM500 79.6C387.7 79.6 282.1 123.3 202.7 202.7C123.3 282.1 79.6 387.7 79.6 500C79.6 612.3 123.3 717.9 202.7 797.3C282.1 876.7 387.7 920.4 500 920.4C612.3 920.4 717.9 876.7 797.3 797.3C876.7 717.9 920.4 612.3 920.4 500C920.4 387.7 876.7 282.1 797.3 202.7C717.9 123.3 612.3 79.6 500 79.6Z" fill="white"/>
<path d="M322.5 290.6H430.5V702.6H322.5V290.6Z" fill="white"/>
<path d="M561.6 290.6H669.5V702.6H561.6V290.6Z" fill="white"/>
</svg>
